<svg width="30" height="30" viewBox="0 0 30 30" fill="none" xmlns="http://www.w3.org/2000/svg">
<path d="M15 0C6.76117 0 0 6.76117 0 15C0 22.0306 4.93332 28.4171 11.4844 30V25.0374C10.8353 25.1795 10.2379 25.1836 9.5771 24.9889C8.69064 24.7272 7.97035 24.1367 7.43568 23.2363C7.09488 22.6614 6.49086 22.0379 5.86075 22.0837L5.70625 20.3327C7.06879 20.216 8.24753 21.1629 8.94722 22.3384C9.25804 22.8612 9.61578 23.1676 10.0749 23.3031C10.5187 23.4338 10.9953 23.3711 11.5505 23.175C11.6899 22.0633 12.1992 21.6472 12.5839 21.0612V21.0603C8.67691 20.4776 7.11983 18.4048 6.50185 16.7688C5.68291 14.5965 6.12236 11.8826 7.5705 10.1676C7.59865 10.1342 7.64946 10.0468 7.62978 9.98566C6.96579 7.97997 7.77489 6.3208 7.80464 6.14479C8.57094 6.37138 8.69545 5.91682 11.1333 7.39792L11.5546 7.65106C11.7309 7.75612 11.6755 7.69615 11.8517 7.68288C12.8696 7.40639 13.9426 7.25372 14.9998 7.23999C16.065 7.25372 17.1311 7.40639 18.1911 7.69409L18.3275 7.70782C18.3156 7.70599 18.3646 7.69913 18.4467 7.65015C21.492 5.80559 21.3826 6.40846 22.1992 6.14296C22.2288 6.3192 23.0271 8.00537 22.3702 9.98566C22.2816 10.2585 25.0104 12.7572 23.4979 16.7681C22.8799 18.4048 21.3231 20.4776 17.4161 21.0603V21.0612C17.9169 21.8246 18.5186 22.2306 18.5154 23.8053V30C25.0667 28.4171 29.9998 22.0306 29.9998 15C30 6.76117 23.2388 0 15 0V0Z" fill="#FFA04A"/>
</svg>
