<svg xmlns="http://www.w3.org/2000/svg" viewBox="0 0 534.5 137.84"><defs><style>.cls-1{fill:#d5d5ce;}.cls-2{fill:#ffa04a;stroke:#ffa04a;stroke-miterlimit:10;stroke-width:10px;}</style></defs><title>Ресурс 6</title><g id="Слой_2" data-name="Слой 2"><g id="Слой_1-2" data-name="Слой 1"><path class="cls-1" d="M34.47,24.47q-3.32,13.72-6.71,25.39T21,72.6H13.33Q9.15,56.93,6,39.52T0,1.64H8q1.11,8,2.29,16t2.45,15.51Q14,40.65,15.3,47.51t2.6,12.7q3.17-10.76,6.71-23.61T31.23,10h6.63q3.07,13.73,6.7,26.57t6.78,23.61c.84-3.83,1.69-8,2.53-12.6s1.67-9.37,2.48-14.38S58,23,58.76,17.66s1.55-10.7,2.29-16h7.8q-2.84,20.47-6,37.88T55.52,72.6H47.87q-3.46-11.07-6.78-22.74T34.47,24.47Z"/><path class="cls-1" d="M77.84,72.6v-71h33.37v8.5H85.49V31.23h22.88v8.29H85.49V64.1h27.69v8.5Z"/><path class="cls-1" d="M137.63,73.21c-1.11,0-2.3,0-3.59-.1s-2.58-.17-3.87-.31-2.56-.31-3.82-.51a24.24,24.24,0,0,1-3.47-.82V2.66a24.24,24.24,0,0,1,3.47-.82c1.26-.2,2.53-.37,3.82-.51S132.74,1.09,134,1s2.44-.1,3.55-.1a41.06,41.06,0,0,1,8.87.92A19.28,19.28,0,0,1,153.6,5a15.14,15.14,0,0,1,4.77,5.78,20.08,20.08,0,0,1,1.74,8.81A19.15,19.15,0,0,1,158,29.13a13.85,13.85,0,0,1-5.68,5.58A16.33,16.33,0,0,1,160,40.55q2.84,4,2.84,11.26,0,10.65-6,16T137.63,73.21Zm-7.18-41.67h8a26.38,26.38,0,0,0,5.37-.52,11.22,11.22,0,0,0,4.38-1.84,9.26,9.26,0,0,0,2.91-3.48,12.18,12.18,0,0,0,1.07-5.43,11,11,0,0,0-1.11-5.17,9,9,0,0,0-3-3.38,14,14,0,0,0-4.54-1.89A23.88,23.88,0,0,0,138,9.22c-1.94,0-3.47,0-4.57.1s-2.11.17-3,.31Zm0,8v25c.58.07,1.26.13,2.05.2s1.49.12,2.41.16,2,0,3.19,0a34.88,34.88,0,0,0,6.43-.57,15.09,15.09,0,0,0,5.32-2,10.45,10.45,0,0,0,3.67-4,13.46,13.46,0,0,0,1.38-6.45,14.93,14.93,0,0,0-1-5.89,9.09,9.09,0,0,0-3-3.83,12.19,12.19,0,0,0-4.62-2,26.83,26.83,0,0,0-6-.62Z"/><path class="cls-1" d="M168.86,37.48h19.48v8.9H168.86Z"/><path class="cls-1" d="M220.68,74.13a22.38,22.38,0,0,1-10.49-2.46,23,23,0,0,1-8.13-7.16,35.38,35.38,0,0,1-5.24-11.62A61.12,61.12,0,0,1,195,37.07a54.77,54.77,0,0,1,2.09-15.82,37.12,37.12,0,0,1,5.64-11.62A24.54,24.54,0,0,1,211,2.46,21.53,21.53,0,0,1,221.07,0a28.4,28.4,0,0,1,6.11.61,30.17,30.17,0,0,1,4.74,1.44,19.78,19.78,0,0,1,3.27,1.64,15.13,15.13,0,0,1,1.73,1.23l-2.2,8.19a11.17,11.17,0,0,0-2.06-1.33q-1.33-.72-3-1.44a22.41,22.41,0,0,0-3.71-1.18,18.52,18.52,0,0,0-4.06-.46,15.66,15.66,0,0,0-7.81,2,17.2,17.2,0,0,0-5.91,5.63,28.45,28.45,0,0,0-3.75,9,49.37,49.37,0,0,0-1.3,11.83,54.41,54.41,0,0,0,1.14,11.57,29.07,29.07,0,0,0,3.43,9,16.75,16.75,0,0,0,5.72,5.78,15.3,15.3,0,0,0,8,2.05A23,23,0,0,0,230.14,64a33.75,33.75,0,0,0,5.21-2.55l2,8.19a11.17,11.17,0,0,1-2,1.28,23.52,23.52,0,0,1-3.55,1.48,35.35,35.35,0,0,1-11.12,1.74Z"/><path class="cls-1" d="M272.81,42.9Q274.07,45,276,48.28c1.29,2.22,2.62,4.67,4,7.37s2.72,5.51,4.06,8.45,2.48,5.77,3.43,8.5h-8.36c-1.05-2.6-2.2-5.23-3.43-7.89s-2.49-5.2-3.75-7.63-2.51-4.69-3.74-6.81-2.36-4-3.36-5.52c-.68.06-1.38.1-2.09.1h-9V72.6h-7.65V2.66a34.28,34.28,0,0,1,7.22-1.38c2.65-.24,5.09-.36,7.29-.36q11.52,0,17.55,5.63t6,16.8a23.89,23.89,0,0,1-2.88,12.08A17.68,17.68,0,0,1,272.81,42.9ZM261.22,9.63a70.35,70.35,0,0,0-7.5.3V36.66h5.44a43.52,43.52,0,0,0,7.1-.52,13.38,13.38,0,0,0,5.33-1.94,9.35,9.35,0,0,0,3.35-4.05,16.9,16.9,0,0,0,1.18-6.91,16.36,16.36,0,0,0-1.18-6.65,10.41,10.41,0,0,0-3.2-4.2A12.07,12.07,0,0,0,267,10.24,26.17,26.17,0,0,0,261.22,9.63Z"/><path class="cls-1" d="M295.68,72.6v-71H329v8.5H303.33V31.23H326.2v8.29H303.33V64.1H331v8.5Z"/><path class="cls-1" d="M378.57,72.6q-1.33-4.62-2.52-9.07t-2.45-9.06H348.84l-5,18.13h-8q3.17-11.26,5.92-20.84t5.4-18.18q2.64-8.59,5.25-16.43t5.44-15.51h7q2.83,7.68,5.44,15.51t5.25,16.43q2.64,8.61,5.4,18.18t5.91,20.84ZM371.4,46.28q-2.53-8.91-5-17.25t-5.17-16q-2.76,7.68-5.24,16t-4.93,17.25Z"/><path class="cls-1" d="M425.82,1.64v8.6h-17.2V72.6H401V10.24H383.78V1.64Z"/><path class="cls-1" d="M429.52,37.07A56.15,56.15,0,0,1,431.61,21a35.9,35.9,0,0,1,5.68-11.62,24,24,0,0,1,8.36-7A22.73,22.73,0,0,1,455.79,0a22,22,0,0,1,10,2.35,23.89,23.89,0,0,1,8.25,7A36.48,36.48,0,0,1,479.65,21a56.16,56.16,0,0,1,2.08,16.08,56.14,56.14,0,0,1-2.08,16.07A36.38,36.38,0,0,1,474,64.76a23.78,23.78,0,0,1-8.25,7,21.89,21.89,0,0,1-10,2.35,22.6,22.6,0,0,1-10.14-2.35,23.84,23.84,0,0,1-8.36-7,35.8,35.8,0,0,1-5.68-11.62A56.12,56.12,0,0,1,429.52,37.07Zm8.05,0a50.5,50.5,0,0,0,1.26,11.72,29.59,29.59,0,0,0,3.59,9,16.94,16.94,0,0,0,5.68,5.68,14.42,14.42,0,0,0,7.53,2,14.23,14.23,0,0,0,7.49-2,17.11,17.11,0,0,0,5.64-5.68,29.59,29.59,0,0,0,3.59-9,50.5,50.5,0,0,0,1.26-11.72,50.59,50.59,0,0,0-1.26-11.73,29.7,29.7,0,0,0-3.59-9,17.2,17.2,0,0,0-5.64-5.68,14.23,14.23,0,0,0-7.49-2,14.42,14.42,0,0,0-7.53,2,17,17,0,0,0-5.68,5.68,29.7,29.7,0,0,0-3.59,9A50.59,50.59,0,0,0,437.57,37.07Z"/><path class="cls-1" d="M519.83,42.9Q521.09,45,523,48.28c1.29,2.22,2.62,4.67,4,7.37s2.72,5.51,4.06,8.45,2.48,5.77,3.43,8.5h-8.36c-1-2.6-2.2-5.23-3.43-7.89s-2.49-5.2-3.75-7.63-2.51-4.69-3.74-6.81-2.36-4-3.36-5.52c-.68.06-1.38.1-2.09.1h-9V72.6h-7.65V2.66a34.28,34.28,0,0,1,7.22-1.38C503,1,505.4.92,507.6.92q11.52,0,17.55,5.63t6,16.8a23.89,23.89,0,0,1-2.88,12.08A17.68,17.68,0,0,1,519.83,42.9ZM508.24,9.63a70.48,70.48,0,0,0-7.5.3V36.66h5.45a43.47,43.47,0,0,0,7.09-.52,13.38,13.38,0,0,0,5.33-1.94A9.35,9.35,0,0,0,522,30.15a16.9,16.9,0,0,0,1.18-6.91A16.36,16.36,0,0,0,522,16.59a10.48,10.48,0,0,0-3.19-4.2A12.18,12.18,0,0,0,514,10.24,26.17,26.17,0,0,0,508.24,9.63Z"/><line class="cls-2" x1="0.79" y1="118.81" x2="210.79" y2="118.81"/><path class="cls-1" d="M271.59,130.38c-.45-1.19-.88-2.36-1.27-3.51s-.81-2.33-1.24-3.52H256.62l-2.5,7h-4q1.59-4.36,3-8.08t2.72-7q1.32-3.33,2.64-6.37c.87-2,1.78-4,2.73-6h3.54c.95,2,1.86,4,2.74,6s1.75,4.15,2.64,6.37,1.79,4.58,2.72,7,1.92,5.17,3,8.08ZM268,120.18q-1.26-3.47-2.52-6.69t-2.6-6.22q-1.38,3-2.64,6.22t-2.48,6.69Z"/><path class="cls-1" d="M286.91,109.3c.32,0,.68,0,1.09.06s.82.09,1.21.16l1.09.19c.34.07.58.13.74.18l-.64,3.22a12.24,12.24,0,0,0-1.44-.38,13.23,13.23,0,0,0-2.61-.22,10,10,0,0,0-2,.22L283,113v17.35h-3.69V110.61a25,25,0,0,1,3.25-.9A21.57,21.57,0,0,1,286.91,109.3Z"/><path class="cls-1" d="M298.07,109.73h7.82v3.1h-7.82v9.53a12,12,0,0,0,.23,2.56,3.85,3.85,0,0,0,.72,1.59,2.59,2.59,0,0,0,1.19.81,5.25,5.25,0,0,0,1.67.24,7.9,7.9,0,0,0,2.68-.38l1.41-.53.71,3a13.37,13.37,0,0,1-1.94.7,11,11,0,0,1-3.18.42,9.54,9.54,0,0,1-3.47-.54,5,5,0,0,1-2.21-1.61,6.53,6.53,0,0,1-1.17-2.64,17.64,17.64,0,0,1-.34-3.63V104l3.7-.64Z"/><path class="cls-1" d="M308.15,134.23a7.38,7.38,0,0,0,1.13.38,5.43,5.43,0,0,0,1.37.18,5.34,5.34,0,0,0,3.41-1,8.39,8.39,0,0,0,2.23-3.15q-2.51-4.77-4.67-10.11A87.33,87.33,0,0,1,308,109.73h4c.29,1.2.64,2.48,1.05,3.86s.87,2.79,1.37,4.24,1.05,2.92,1.63,4.37,1.19,2.86,1.83,4.21c1-2.78,1.88-5.53,2.62-8.26s1.44-5.53,2.1-8.42h3.81c-1,3.9-2,7.63-3.17,11.22s-2.43,6.94-3.78,10.06a20.76,20.76,0,0,1-1.64,3.08,9.13,9.13,0,0,1-1.89,2.12,6.93,6.93,0,0,1-2.32,1.24,10.12,10.12,0,0,1-2.92.39,7.31,7.31,0,0,1-.91-.06c-.32,0-.63-.09-.94-.16a7.71,7.71,0,0,1-.83-.21,5.21,5.21,0,0,1-.54-.2Z"/><path class="cls-1" d="M348.52,120.06a12.93,12.93,0,0,1-.71,4.44,10.11,10.11,0,0,1-2,3.42,8.88,8.88,0,0,1-3.07,2.2,10.21,10.21,0,0,1-7.78,0,8.92,8.92,0,0,1-3.08-2.2,10.27,10.27,0,0,1-2-3.42,14.21,14.21,0,0,1,0-8.87,10.13,10.13,0,0,1,2-3.43A8.81,8.81,0,0,1,335,110a10.21,10.21,0,0,1,7.78,0,8.78,8.78,0,0,1,3.07,2.21,10,10,0,0,1,2,3.43A13,13,0,0,1,348.52,120.06Zm-3.85,0a8.85,8.85,0,0,0-1.57-5.54,5.46,5.46,0,0,0-8.53,0,10.54,10.54,0,0,0,0,11.07,5.46,5.46,0,0,0,8.53,0A8.82,8.82,0,0,0,344.67,120.06Z"/><path class="cls-1" d="M353.73,110.33c.84-.21,2-.44,3.35-.67a28.63,28.63,0,0,1,4.82-.36,9.25,9.25,0,0,1,3.34.53,5.86,5.86,0,0,1,2.26,1.57c.19-.13.48-.32.87-.55a10.19,10.19,0,0,1,1.47-.7,16.17,16.17,0,0,1,2-.59A10.92,10.92,0,0,1,378,110a5.6,5.6,0,0,1,2.36,2,7.67,7.67,0,0,1,1.16,3,23.83,23.83,0,0,1,.29,3.82v11.59H378.1v-10.8a23.55,23.55,0,0,0-.18-3.14,6.09,6.09,0,0,0-.67-2.18A3.11,3.11,0,0,0,375.9,113a5,5,0,0,0-2.21-.42,8.18,8.18,0,0,0-3.07.5,6.12,6.12,0,0,0-1.65.89,14.39,14.39,0,0,1,.48,2.27,21.27,21.27,0,0,1,.16,2.58v11.59h-3.7v-10.8a21.84,21.84,0,0,0-.19-3.14,6.5,6.5,0,0,0-.7-2.18,3.11,3.11,0,0,0-1.35-1.29,4.89,4.89,0,0,0-2.16-.42c-.37,0-.77,0-1.19,0l-1.22.1c-.38,0-.73.09-1.05.14a6,6,0,0,0-.63.12v17.43h-3.69Z"/><path class="cls-1" d="M419.55,102.87q-1.51,4.36-2.88,8.08c-.91,2.47-1.81,4.82-2.68,7s-1.74,4.35-2.6,6.37-1.74,4-2.64,6h-3.61c-.9-2-1.78-4-2.64-6s-1.74-4.14-2.62-6.37-1.8-4.57-2.72-7-1.88-5.17-2.86-8.08h4.25q2.15,6.27,4.2,12.07T407,125.81q2.19-5,4.25-10.85t4.17-12.09Z"/><path class="cls-1" d="M439.56,120.06a12.92,12.92,0,0,1-.72,4.44,10.09,10.09,0,0,1-2,3.42,8.92,8.92,0,0,1-3.08,2.2,10.21,10.21,0,0,1-7.78,0,8.92,8.92,0,0,1-3.08-2.2,10.09,10.09,0,0,1-2-3.42,14,14,0,0,1,0-8.87,10,10,0,0,1,2-3.43A8.81,8.81,0,0,1,426,110a10.21,10.21,0,0,1,7.78,0,8.81,8.81,0,0,1,3.08,2.21,10,10,0,0,1,2,3.43A13,13,0,0,1,439.56,120.06Zm-3.85,0a8.91,8.91,0,0,0-1.57-5.54,5.47,5.47,0,0,0-8.54,0,10.54,10.54,0,0,0,0,11.07,5.47,5.47,0,0,0,8.54,0A8.88,8.88,0,0,0,435.71,120.06Z"/><path class="cls-1" d="M451,130.78q-3.42-.09-4.84-1.47a5.78,5.78,0,0,1-1.43-4.33V100.21l3.69-.64v24.81a5.76,5.76,0,0,0,.16,1.51,2,2,0,0,0,.52,1,2.23,2.23,0,0,0,.95.53,9.66,9.66,0,0,0,1.47.3Z"/><path class="cls-1" d="M463.06,119a25.75,25.75,0,0,1,2.52,2.27c.89.9,1.76,1.87,2.62,2.92s1.67,2.1,2.44,3.17a34.09,34.09,0,0,1,1.95,3h-4.33a33.27,33.27,0,0,0-1.93-2.84c-.72-1-1.48-1.89-2.28-2.78a32.85,32.85,0,0,0-2.42-2.44,23,23,0,0,0-2.34-1.87v9.93H455.6V100.21l3.69-.64v18.82q.94-1,2.1-2.1c.77-.77,1.52-1.55,2.26-2.35s1.45-1.55,2.11-2.28,1.23-1.37,1.71-1.93h4.32c-.61.67-1.27,1.39-2,2.19s-1.46,1.59-2.22,2.4-1.55,1.61-2.33,2.42Z"/><path class="cls-1" d="M493.39,120.06a13.17,13.17,0,0,1-.71,4.44,10.27,10.27,0,0,1-2,3.42,8.92,8.92,0,0,1-3.08,2.2,10.21,10.21,0,0,1-7.78,0,8.88,8.88,0,0,1-3.07-2.2,10.27,10.27,0,0,1-2-3.42,14.21,14.21,0,0,1,0-8.87,10.13,10.13,0,0,1,2-3.43,8.78,8.78,0,0,1,3.07-2.21,10.21,10.21,0,0,1,7.78,0,8.81,8.81,0,0,1,3.08,2.21,10.13,10.13,0,0,1,2,3.43A13.28,13.28,0,0,1,493.39,120.06Zm-3.85,0a8.85,8.85,0,0,0-1.57-5.54,5.46,5.46,0,0,0-8.53,0,10.54,10.54,0,0,0,0,11.07,5.46,5.46,0,0,0,8.53,0A8.82,8.82,0,0,0,489.54,120.06Z"/><path class="cls-1" d="M514.15,109.73a103.37,103.37,0,0,1-3.63,11.12q-2.08,5.33-4,9.53h-3.33q-1.95-4.22-4-9.53a105.66,105.66,0,0,1-3.64-11.12h4c.32,1.3.7,2.68,1.14,4.15s.89,2.93,1.38,4.37,1,2.84,1.49,4.19,1,2.55,1.43,3.61c.45-1.06.93-2.26,1.43-3.61s1-2.75,1.49-4.19.95-2.9,1.39-4.37.81-2.85,1.13-4.15Z"/></g></g></svg>