<svg width="40" height="40" viewBox="0 0 40 40" fill="none" xmlns="http://www.w3.org/2000/svg">
<path d="M40 32.647V7.35292C40 6.8846 39.8197 6.45872 39.5268 6.137C39.5224 6.13175 39.5174 6.12677 39.5128 6.12152C39.1821 5.76659 38.7122 5.54297 38.19 5.54297H1.80995C1.28842 5.54297 0.819095 5.76605 0.488507 6.12016C0.483439 6.12595 0.477919 6.13148 0.472941 6.13727C0.180181 6.45899 0 6.88478 0 7.35292V32.647C0 33.1155 0.180362 33.5415 0.473394 33.8632C0.477376 33.868 0.4819 33.8725 0.486063 33.8772C0.816742 34.2328 1.28715 34.457 1.80995 34.457H38.19C38.7122 34.457 39.1821 34.2334 39.5128 33.8784C39.5174 33.8732 39.5224 33.8683 39.5268 33.863C39.8197 33.5412 40 33.1154 40 32.647ZM8.8724 25.2542C8.51195 24.908 7.939 24.9197 7.59285 25.2803L1.80995 31.3029V8.69709L12.6628 20L9.73113 23.0533C9.38498 23.4137 9.39665 23.9867 9.75719 24.3328C9.93258 24.5012 10.1584 24.5851 10.3838 24.5851C10.6215 24.5851 10.859 24.4919 11.0367 24.3069L13.9175 21.3067L18.0937 25.6561C18.5994 26.1828 19.2764 26.4728 20 26.4728C20.7236 26.4728 21.4006 26.1827 21.9063 25.6561L26.0825 21.3067L36.9715 32.647H3.02851L8.89837 26.5337C9.24452 26.1733 9.23285 25.6003 8.8724 25.2542ZM20.6008 24.4025C20.4396 24.5704 20.2262 24.6629 20 24.6629C19.7738 24.6629 19.5605 24.5704 19.3992 24.4025L3.02851 7.35292H36.9714L20.6008 24.4025ZM27.3372 20L38.19 8.69709L38.1902 31.3031L27.3372 20Z" fill="#FFA04A"/>
</svg>
