<svg width="1280" height="640" viewBox="0 0 1280 640" fill="none" xmlns="http://www.w3.org/2000/svg">
  <defs>
    <linearGradient id="bg" x1="80" y1="40" x2="1200" y2="600" gradientUnits="userSpaceOnUse">
      <stop stop-color="#17120f"/>
      <stop offset="1" stop-color="#2D1F17"/>
    </linearGradient>
    <linearGradient id="accent" x1="216" y1="143" x2="954" y2="567" gradientUnits="userSpaceOnUse">
      <stop stop-color="#F0B26B"/>
      <stop offset="1" stop-color="#D67B39"/>
    </linearGradient>
    <filter id="shadow" x="0" y="0" width="1280" height="640" filterUnits="userSpaceOnUse" color-interpolation-filters="sRGB">
      <feFlood flood-opacity="0" result="BackgroundImageFix"/>
      <feColorMatrix in="SourceAlpha" type="matrix" values="0 0 0 0 0 0 0 0 0 0 0 0 0 0 0 0 0 0 127 0" result="hardAlpha"/>
      <feOffset dy="20"/>
      <feGaussianBlur stdDeviation="24"/>
      <feComposite in2="hardAlpha" operator="out"/>
      <feColorMatrix type="matrix" values="0 0 0 0 0 0 0 0 0 0 0 0 0 0 0 0 0 0 0.28 0"/>
      <feBlend mode="normal" in2="BackgroundImageFix" result="effect1_dropShadow_1_1"/>
      <feBlend mode="normal" in="SourceGraphic" in2="effect1_dropShadow_1_1" result="shape"/>
    </filter>
  </defs>

  <rect width="1280" height="640" rx="28" fill="url(#bg)"/>
  <circle cx="1060" cy="132" r="180" fill="#3A2517" opacity="0.5"/>
  <circle cx="1140" cy="560" r="220" fill="#2A1A12" opacity="0.8"/>
  <path d="M0 524C145 455 260 430 412 454C564 478 695 561 845 576C997 592 1128 540 1280 478V640H0V524Z" fill="#120E0B"/>

  <g opacity="0.14">
    <path d="M80 92H1200" stroke="#F7D5B2"/>
    <path d="M80 156H1200" stroke="#F7D5B2"/>
    <path d="M80 220H1200" stroke="#F7D5B2"/>
    <path d="M80 284H1200" stroke="#F7D5B2"/>
    <path d="M80 348H1200" stroke="#F7D5B2"/>
    <path d="M80 412H1200" stroke="#F7D5B2"/>
    <path d="M80 476H1200" stroke="#F7D5B2"/>
    <path d="M80 540H1200" stroke="#F7D5B2"/>
    <path d="M160 60V580" stroke="#F7D5B2"/>
    <path d="M320 60V580" stroke="#F7D5B2"/>
    <path d="M480 60V580" stroke="#F7D5B2"/>
    <path d="M640 60V580" stroke="#F7D5B2"/>
    <path d="M800 60V580" stroke="#F7D5B2"/>
    <path d="M960 60V580" stroke="#F7D5B2"/>
    <path d="M1120 60V580" stroke="#F7D5B2"/>
  </g>

  <g filter="url(#shadow)">
    <rect x="70" y="68" width="1140" height="500" rx="30" fill="#1E1713" stroke="#4C3728"/>
  </g>

  <rect x="114" y="116" width="156" height="42" rx="21" fill="#2A211C" stroke="#5F4634"/>
  <text x="144" y="145" fill="#F2C894" font-family="Segoe UI, Arial, sans-serif" font-size="16" font-weight="700" letter-spacing="0.12em">PORTFOLIO</text>

  <text x="114" y="228" fill="#FFF7EF" font-family="Segoe UI, Arial, sans-serif" font-size="66" font-weight="700">Webcreator</text>
  <text x="114" y="278" fill="#F0B26B" font-family="Segoe UI, Arial, sans-serif" font-size="30" font-weight="600">Frontend Engineer Portfolio</text>

  <text x="114" y="344" fill="#E7D8CC" font-family="Segoe UI, Arial, sans-serif" font-size="20">
    <tspan x="114" dy="0">One-page personal website with modular</tspan>
    <tspan x="114" dy="34">HTML partials, SCSS blocks, vanilla</tspan>
    <tspan x="114" dy="34">JavaScript interactions, and GitHub Pages deployment.</tspan>
  </text>

  <g>
    <rect x="114" y="432" width="124" height="42" rx="21" fill="#2A211C" stroke="#6B4D38"/>
    <text x="149" y="459" fill="#FFF7EF" font-family="Segoe UI, Arial, sans-serif" font-size="18" font-weight="600">Gulp 5</text>

    <rect x="252" y="432" width="126" height="42" rx="21" fill="#2A211C" stroke="#6B4D38"/>
    <text x="288" y="459" fill="#FFF7EF" font-family="Segoe UI, Arial, sans-serif" font-size="18" font-weight="600">SCSS</text>

    <rect x="392" y="432" width="198" height="42" rx="21" fill="#2A211C" stroke="#6B4D38"/>
    <text x="426" y="459" fill="#FFF7EF" font-family="Segoe UI, Arial, sans-serif" font-size="18" font-weight="600">Vanilla JavaScript</text>
  </g>

  <g>
    <rect x="650" y="98" width="478" height="128" rx="24" fill="#251C17" stroke="#5A4030"/>
    <circle cx="734" cy="162" r="24" fill="url(#accent)"/>
    <text x="774" y="154" fill="#FFF7EF" font-family="Segoe UI, Arial, sans-serif" font-size="24" font-weight="700">About</text>
    <text x="774" y="182" fill="#D7C1B1" font-family="Segoe UI, Arial, sans-serif" font-size="15">
      <tspan x="774" dy="0">Engineer profile, experience,</tspan>
      <tspan x="774" dy="22">and core stack.</tspan>
    </text>

    <rect x="650" y="254" width="478" height="128" rx="24" fill="#251C17" stroke="#5A4030"/>
    <circle cx="734" cy="318" r="24" fill="url(#accent)"/>
    <text x="774" y="308" fill="#FFF7EF" font-family="Segoe UI, Arial, sans-serif" font-size="24" font-weight="700">Selected Works</text>
    <text x="774" y="336" fill="#D7C1B1" font-family="Segoe UI, Arial, sans-serif" font-size="16">
      <tspan x="774" dy="0">Portfolio cards with a modal, project links,</tspan>
      <tspan x="774" dy="24">and image gallery.</tspan>
    </text>

    <rect x="650" y="410" width="478" height="128" rx="24" fill="#251C17" stroke="#5A4030"/>
    <circle cx="734" cy="474" r="24" fill="url(#accent)"/>
    <text x="774" y="466" fill="#FFF7EF" font-family="Segoe UI, Arial, sans-serif" font-size="24" font-weight="700">Contact</text>
    <text x="774" y="488" fill="#D7C1B1" font-family="Segoe UI, Arial, sans-serif" font-size="15">
      <tspan x="774" dy="0">Formspree-powered contact form</tspan>
      <tspan x="774" dy="22">with UI states.</tspan>
    </text>
  </g>
</svg>










