<svg xmlns="http://www.w3.org/2000/svg" viewBox="0 0 391.54 227.48"><defs><style>.cls-1{fill:#fea76a;}.cls-2{fill:#010101;}.cls-3{fill:#a8a096;}.cls-4{fill:#aaa298;}.cls-5{fill:#a8a097;}.cls-6{fill:#a9a197;}.cls-7{fill:#a9a198;}.cls-8{fill:#a9a298;}.cls-9{fill:#060606;}.cls-10{fill:#ada69c;}.cls-11{fill:#aaa299;}.cls-12{fill:#b2aba3;}.cls-13{fill:#b3aca3;}.cls-14{fill:#ada69d;}.cls-15{fill:#fdfdfd;}.cls-16{fill:#f8f8f8;}.cls-17{fill:#fbfbfb;}.cls-18{fill:#f5f5f4;}.cls-19{fill:#f8f7f7;}.cls-20{fill:#fafaf9;}.cls-21{fill:#f8f8f7;}.cls-22{fill:#fcfcfc;}</style></defs><g id="Слой_2" data-name="Слой 2"><g id="Слой_1-2" data-name="Слой 1"><path class="cls-1" d="M203.67,44.89H182.88C140.34,3.65,78.42,9.6,43.8,46,7.58,84.05,7.26,142.18,41.85,179.69c35.69,38.69,99.93,43.85,141.1,2.77h20.74c-22.51,32.09-69.55,54.3-119.12,41.2A113.69,113.69,0,0,1,80.34,5.07C131.22-10.47,179.62,11.68,203.67,44.89Z"/><path d="M67.59,115.86c-2-17.63-3.93-35.31-5.92-53.14,2.76-.82,5.27-.42,8.15-.33C71.22,75.2,72.6,87.91,74,100.62l.79-.06C76,87.92,77.24,75.28,78.49,62.45h8.1q2,19.89,4,39.66l.53-.06c1.35-13.1,2.69-26.19,4.06-39.53h7.36c-2,17.88-4,35.65-5.93,53.46H85.43c-1-8.43-1.88-16.76-2.81-25.09l-.65,0c-.9,8.23-1.79,16.46-2.71,24.94Z"/><path class="cls-2" d="M135.38,116.05V62.31c5.84.08,11.49-.55,17.14.54a8.93,8.93,0,0,1,6.64,4.89c2.92,5.74,1.36,15-3.23,19.6,5.45,5.08,7.42,16.6,3.89,23.17-2,3.71-5.34,5.38-9.38,5.51C145.55,116.17,140.65,116.05,135.38,116.05Z"/><path class="cls-2" d="M217.18,62.19c5.85.31,11.31-.49,16.71.62,4.8,1,7.41,3.68,8,8.48a38.71,38.71,0,0,1-.18,12.2,9.92,9.92,0,0,1-4.37,6.2c8.44,7.27,3.22,17.32,5.74,25.94-2.8.94-5.47.28-8.39.51-1.59-4.87-.72-9.77-.88-14.58-.2-6.23-1.55-7.53-8.33-7.16V116h-8.31Z"/><path d="M365.57,62.19c5.86.31,11.29-.4,16.71.58,4.39.79,7.37,3.27,7.87,7.63.77,6.78,2.3,13.92-4.36,19.42,4.22,2.9,5,7.26,5,12.06,0,4.6-.51,9.25.77,14h-8.71c-.83-4.75-.31-9.62-.45-14.44-.18-6.09-1.94-7.62-8.37-7v21.13c-2.89.95-5.57.19-8.44.53Z"/><path d="M359.73,89.13c0,5.3.22,10.61-.05,15.89-.39,7.55-4.87,11.68-12.29,11.8s-12.65-3.84-12.94-11.14c-.42-11-.45-22,0-33,.32-7.31,5.45-11.09,13.08-10.88,7.42.2,11.72,4.08,12.11,11.45.29,5.28.06,10.59.06,15.89Z"/><path d="M303.56,116h-8.44l-1.61-9.42H283.3c-.52,3-1.07,6.16-1.64,9.4H274c2.88-18,5.73-35.79,8.59-53.61H295C297.8,80.09,300.65,97.88,303.56,116Z"/><path class="cls-2" d="M211.62,80.3h-7.4c-1.05-2.3-.29-4.65-.6-6.89-.35-2.56-1.6-4-4.24-4s-4.17,1.38-4.18,4q-.1,15.91,0,31.83c0,2.44,1.58,3.63,4,3.68,2.58.06,4.22-1.1,4.33-3.77.12-2.82,0-5.65,0-8.73h7.86c0,3.46.43,7.15-.1,10.7-1,6.45-5.62,9.82-12.51,9.71s-11.18-3.41-11.82-10a188.79,188.79,0,0,1,0-35c.63-7.08,5.39-10.34,12.85-10.06,7,.27,11.17,4,11.75,11C211.79,75.18,211.62,77.62,211.62,80.3Z"/><path class="cls-2" d="M248,116V62.46h22.64c.76,2.41.21,4.79.33,7.48h-14.3V84.68c3.44.9,7.25-.13,11.12.54v7.52H256.58v15.67h13.88c1,2.64.45,5,.45,7.54Z"/><path d="M115.51,85h11.23v7.58h-11.3v15.86h14.32v7.42H107.21V62.52h22.43c.63,2.2.19,4.6.22,7.4H115.51Z"/><path class="cls-2" d="M313.9,70.09h-8.58a26.63,26.63,0,0,1-.2-7.61h25.82v7.59h-8.45v45.66c-2.88.72-5.55.33-8.59.34Z"/><path class="cls-3" d="M223.15,153.65c.52,1.93,2.69,2.54,3,4.55-2.42,1.14-4.13,0-5.63-1.87-3.86,2.36-8,5.3-11.79,1.09-3.34-3.69-.27-7,2.28-10.17-1.3-3.08-3.82-6.51.69-9,2.66-1.5,5.67-1.79,7.82.82,3.09,3.75-.77,5.77-2.57,8.32a10.19,10.19,0,0,0,3.52,3.74c2.13-.67,2.74-3,4.54-3.94a2.2,2.2,0,0,1,1.89,1.59C226.28,150.7,224.15,151.61,223.15,153.65Z"/><path class="cls-4" d="M65.11,158.3v6.56c-1.3,1-2.27,1.07-3.49.09V144.63c1.86-1,3.58-.06,5.33-.48,4.88-1.15,8.52,1.4,9,5.7.55,4.94-2.35,8.3-7.46,8.61C67.56,158.51,66.61,158.38,65.11,158.3Z"/><path class="cls-5" d="M239,144.32c1.51-.5,3.07.14,4.71-.19,5.22-1,8.65,1.53,8.92,6.22.3,5.19-2.52,8.1-7.89,8.11-.81,0-1.62-.12-2.67-.2-.11,2.33-.23,4.6-.33,6.75a2.06,2.06,0,0,1-2.71.35C238.22,162,238.19,147.92,239,144.32Z"/><path class="cls-6" d="M270.24,152.83h-9.53c2.37,3.91,6.07,1.58,8.69,2.77-.83,2.69-3.45,3.52-7.47,2.46-4.25-1.11-6.08-3.94-5.28-8.17a7.81,7.81,0,0,1,8.92-6C269.47,144.43,270.79,146.77,270.24,152.83Z"/><path class="cls-7" d="M315.27,152.76h-9.53c2.39,3.91,5.84,1.94,9.06,2.56-.62,3.76-3.6,3.12-5.75,3.08-5-.1-7.83-3.24-7.45-7.69.35-4.21,4-7.14,8.6-6.82C314.39,144.18,315.85,146.55,315.27,152.76Z"/><path class="cls-6" d="M106.89,152.77H97.36c2.11,4.2,6.5,1.26,9.17,3.27a8.74,8.74,0,0,1-11,.86c-2.51-1.77-3.26-5.71-1.68-8.87a8.32,8.32,0,0,1,9.42-3.87C107.35,145.51,107.32,148.77,106.89,152.77Z"/><path class="cls-8" d="M176.87,150.94c-.05,4.56-3.53,7.7-8.35,7.53-4.3-.15-7.37-3.11-7.43-7.15-.06-4.3,3.31-7.43,8-7.44S176.9,146.68,176.87,150.94Z"/><path class="cls-6" d="M365.8,143.88c4.51.05,7.7,3.07,7.65,7.25s-3.43,7.37-8.11,7.34-7.5-2.77-7.48-7.29S360.87,143.82,365.8,143.88Z"/><path class="cls-9" d="M181.28,85.62v7.24h-15V85.62Z"/><path class="cls-4" d="M377.94,144a13.29,13.29,0,0,0,6.5.1c4.33-.92,6.81,1.18,7,5.55.11,2.56,0,5.13,0,7.42a2.14,2.14,0,0,1-2.86.48c-1.69-3.11,1.31-7.3-2.12-9.88-1.37-1-3.12-.58-4.86.6v8.3c-1.2,1.81-2.34,1.38-3.68,1Z"/><path class="cls-8" d="M190.79,148.07c-2-1.47-3.85-1-6,.28v8.28c-1.08,1.65-2.07,1.19-3.26.91V144.22a27,27,0,0,0,7.54-.27c2.89-.41,4.9.88,5.6,4s.32,6.16.36,9c-1.12,1.3-2.15,1-3.27.67C190.54,154.5,192.09,151.11,190.79,148.07Z"/><path class="cls-8" d="M136.53,148.59c1.61-4.6,6.2-6,11.77-3.52-1.19,4.42-5.89,0-7.67,3.18,2.47,2.46,7.37,1.38,8.69,5.53-2,4.83-5.06,5.71-12.35,3.59-.82-.81-.64-1.65,0-2.53,1.51-.67,2.82.67,4.31.47,1.3-.17,2.76.38,3.84-1.16-1.12-1.82-3.25-1.52-4.88-2.22S137,150.59,136.53,148.59Z"/><path class="cls-6" d="M293.68,143.34c1.48,1.25,3.29.19,4.86,1,.72.71.7,1.54,0,2.6l-5,.46v9.29c-1.11,1.47-2,1.13-3.06.93-.87-3.08-.11-6.23-.48-9.3,0-1.53-2.36-.85-2.19-3.13,3.11-.62,1.48-4.91,4.34-6.39,2.19-1.13,4.51-.91,6.77-.41,1.2.26,1,1.39.73,2.38C298,142.33,294.49,139.72,293.68,143.34Z"/><path class="cls-6" d="M338,157c-1.2-3-.34-5.92-.76-8.53-.08-1.59-2.46-1-2.21-2.78.34-2,3.3-2.44,2.51-4.88,2.76.06,2.76.06,3.84,3l3.47.35c1,.79.95,1.64.33,2.78l-4,.4c-.95,2.39-.35,4.75-.33,6.39,1.42,2.67,4.69.2,5.37,3.45C343.4,159.28,340.68,158.76,338,157Z"/><path class="cls-8" d="M124.05,145.13l-.81,2.09c-3.24.4-8.12-1.73-8.61,3.36-.6,6.2,5.31,4,9.22,5.24-2.36,3.48-5.32,2.94-8.12,2.1-4.13-1.23-5.88-5.31-4.31-9.46S117.8,142.93,124.05,145.13Z"/><path class="cls-8" d="M332,157.18c-4.57,2-9.16,1.54-11.2-1.33a7.4,7.4,0,0,1,0-8.81c2.15-3.31,6.24-3.93,11.46-2,0,1.53-.27,2.73-2.31,2.16a6.3,6.3,0,0,0-1.63-.11c-2.85,0-5.46.63-5.35,4.07.1,3.26,2.59,4.11,5.48,4.1C329.93,155.29,331.92,154.5,332,157.18Z"/><path class="cls-10" d="M80.49,157.84V144.11c3.6,1.22,7.07-1.65,10.37.75-.74,1.58-.74,1.58-6.3,2.92-1.16,2.9-.1,6.07-.69,9.46C83.28,158.67,82.06,158.38,80.49,157.84Z"/><path class="cls-4" d="M285.61,145c-1.05,3.91-4.56.88-6.7,3.27-1.17,2.47.44,6-.65,9.06a2.38,2.38,0,0,1-2.74.07V144.09C278.88,145.41,282.25,142.43,285.61,145Z"/><path class="cls-5" d="M131.28,157.41a2.66,2.66,0,0,1-2.82,0V144.69c.76-.84,1.64-.76,2.82-.2Z"/><path class="cls-8" d="M153.72,144.7c.88-.84,1.74-.79,2.88-.15v12.67c-.86.89-1.73.73-2.88.15Z"/><path class="cls-11" d="M350.07,144.52a2.16,2.16,0,0,1,3,.3V157c-.87,1.06-1.76.91-3,.43Z"/><path class="cls-12" d="M353,141.75a3,3,0,0,1-2.77,0c-.75-.93-.53-2-.27-3.06a3,3,0,0,1,3.38-.2A2.54,2.54,0,0,1,353,141.75Z"/><path class="cls-13" d="M153.29,138.55c1-.76,2.07-.42,3-.3.92,1.06.66,2.11.43,3.17-1.08,1.08-2.17.62-3.14.31A2.72,2.72,0,0,1,153.29,138.55Z"/><path class="cls-14" d="M128.5,138.51a2.69,2.69,0,0,1,2.92.09,8.2,8.2,0,0,1,.19,1.74c-.14,2-1.46,1.83-2.87,1.45A2.7,2.7,0,0,1,128.5,138.51Z"/><path class="cls-15" d="M143.9,108.59V92.17a13.78,13.78,0,0,1,7.42.73c2.49,4.14,2.26,9,.79,13.42C150.92,109.92,147,108.18,143.9,108.59Z"/><path class="cls-15" d="M144,70.27h6c3.21,3.43,2.49,7.5,1.53,11.16S147,84.15,144,84.16Z"/><path class="cls-15" d="M225.67,70.16a18,18,0,0,1,6,.29c2.29,2.7,3.08,11.5,1.25,14.14s-4.46,2-7.2,1.92Z"/><path class="cls-16" d="M374,86.42v-16a13,13,0,0,1,6.21,0c2.27,3.13,3,11.46,1.23,14.1S376.81,86.65,374,86.42Z"/><path class="cls-15" d="M349.75,108.34a5.42,5.42,0,0,1-5.41,0,6.32,6.32,0,0,1-1.7-4.91c0-9.4-.06-18.8,0-28.19,0-2.66.38-5.36,3.87-5.72,3-.3,4.8,1.28,4.83,4.2.11,10.35,0,20.7,0,31.05A4.89,4.89,0,0,1,349.75,108.34Z"/><path class="cls-17" d="M292.43,98.84h-8.11c1.22-8.24,2.41-16.25,3.61-24.25l.73-.14C289.89,82.42,291.12,90.38,292.43,98.84Z"/><path class="cls-17" d="M213.79,149.81a14.33,14.33,0,0,1,3.88,4c-3.69,3.2-4.54,3.14-6.79-.46A4.78,4.78,0,0,1,213.79,149.81Z"/><path class="cls-18" d="M217.19,141.64a4.22,4.22,0,0,1-2.42,3c-1.63-.27-1.85-1.44-2.24-2.53C214.05,140,215.51,140.12,217.19,141.64Z"/><path class="cls-15" d="M65.47,147.45c2.78-.57,5-.69,6.54,1.64a3.74,3.74,0,0,1,0,4.2c-1.49,2.35-3.76,2.21-6.26,1.76C64.8,152.64,65.25,150.17,65.47,147.45Z"/><path class="cls-15" d="M242.1,155.09v-7.67c2.45-.42,4.76-1,6.44,1.28a4.07,4.07,0,0,1,.06,5C247,156,244.6,155.31,242.1,155.09Z"/><path class="cls-19" d="M267.68,149a8.91,8.91,0,0,1-6.68,0C262.92,146.48,264.85,146.81,267.68,149Z"/><path class="cls-20" d="M305.6,149.45c3.23-3.08,4-3.07,6.41-.2C310,150,308.06,149.75,305.6,149.45Z"/><path class="cls-21" d="M103.49,149.52c-2.3.23-4.12.49-5.94-.18C99.82,146.21,101.55,146.21,103.49,149.52Z"/><path class="cls-15" d="M172.72,148.76a5.58,5.58,0,0,1,.1,4.72c-2.21,2.21-4.71,2.57-7,.28a3.52,3.52,0,0,1,0-5.39C168.33,146,170.7,147.05,172.72,148.76Z"/><path class="cls-22" d="M370.14,151.37c-.59,2.42-2,3.95-4.52,3.84s-4.34-1.6-4.36-4.33,1.92-3.74,4.33-3.73C368.29,147.15,369.71,148.78,370.14,151.37Z"/></g></g></svg>